<svg xmlns="http://www.w3.org/2000/svg" viewBox="0 0 720 440" font-family="Helvetica,Arial,sans-serif">
<rect width="720" height="440" fill="#fff"/>
<text x="360" y="30" text-anchor="middle" font-size="17" font-weight="bold" fill="#111">EM74CBTLV3125D 使用接线图 · SOP-14L</text>
<text x="360" y="52" text-anchor="middle" font-size="12" fill="#666">四 · VCC 2.3 V to 3.6 V · 左=控制/输入，右=输出</text>
<line x1="60" y1="78" x2="660" y2="78" stroke="#111" stroke-width="2.5"/>
<text x="48" y="83" text-anchor="end" font-size="14" font-weight="bold">VCC</text>
<line x1="60" y1="400" x2="660" y2="400" stroke="#111" stroke-width="2.5"/>
<text x="48" y="405" text-anchor="end" font-size="14" font-weight="bold">GND</text>
<text x="365" y="118" text-anchor="middle" font-size="14" font-weight="bold">EM74CBTLV3125D · SOP-14L</text>
<rect x="300" y="130" width="130" height="240" rx="5" fill="#f7f9fb" stroke="#111" stroke-width="2.5"/>
<text x="308" y="269" font-size="10.5" text-anchor="start">GND (7)</text>
<line x1="300" y1="265" x2="150" y2="265" stroke="#111" stroke-width="2"/>
<line x1="150" y1="265" x2="150" y2="400" stroke="#111" stroke-width="2"/>
<text x="422" y="173" font-size="10.5" text-anchor="end">V CC (14)</text>
<line x1="430" y1="169" x2="520" y2="169" stroke="#111" stroke-width="2"/>
<line x1="520" y1="169" x2="520" y2="78" stroke="#111" stroke-width="2"/>
<text x="422" y="189" font-size="10.5" text-anchor="end">1OE (1)</text>
<line x1="430" y1="185" x2="560" y2="185" stroke="#111" stroke-width="2"/>
<text x="568" y="181" font-size="13" font-weight="bold">→ 使能</text>
<text x="422" y="205" font-size="10.5" text-anchor="end">1A (2)</text>
<line x1="430" y1="201" x2="560" y2="201" stroke="#111" stroke-width="2"/>
<text x="568" y="197" font-size="13" font-weight="bold">→ 输入</text>
<text x="422" y="221" font-size="10.5" text-anchor="end">1B (3)</text>
<line x1="430" y1="217" x2="560" y2="217" stroke="#111" stroke-width="2"/>
<text x="568" y="213" font-size="13" font-weight="bold">→ 输入</text>
<text x="422" y="237" font-size="10.5" text-anchor="end">2OE (4)</text>
<line x1="430" y1="233" x2="560" y2="233" stroke="#111" stroke-width="2"/>
<text x="568" y="229" font-size="13" font-weight="bold">→ 使能</text>
<text x="422" y="253" font-size="10.5" text-anchor="end">2A (5)</text>
<line x1="430" y1="249" x2="560" y2="249" stroke="#111" stroke-width="2"/>
<text x="568" y="245" font-size="13" font-weight="bold">→ 输入</text>
<text x="422" y="269" font-size="10.5" text-anchor="end">2B (6)</text>
<line x1="430" y1="265" x2="560" y2="265" stroke="#111" stroke-width="2"/>
<text x="568" y="261" font-size="13" font-weight="bold">→ 输入</text>
<text x="422" y="285" font-size="10.5" text-anchor="end">3B (8)</text>
<line x1="430" y1="281" x2="560" y2="281" stroke="#111" stroke-width="2"/>
<text x="568" y="277" font-size="13" font-weight="bold">→ 输入</text>
<text x="422" y="301" font-size="10.5" text-anchor="end">3A (9)</text>
<line x1="430" y1="297" x2="560" y2="297" stroke="#111" stroke-width="2"/>
<text x="568" y="293" font-size="13" font-weight="bold">→ 输入</text>
<text x="422" y="317" font-size="10.5" text-anchor="end">3OE (10)</text>
<line x1="430" y1="313" x2="560" y2="313" stroke="#111" stroke-width="2"/>
<text x="568" y="309" font-size="13" font-weight="bold">→ 使能</text>
<text x="422" y="333" font-size="10.5" text-anchor="end">4B (11)</text>
<line x1="430" y1="329" x2="560" y2="329" stroke="#111" stroke-width="2"/>
<text x="568" y="325" font-size="13" font-weight="bold">→ 输入</text>
<text x="422" y="349" font-size="10.5" text-anchor="end">4A (12)</text>
<line x1="430" y1="345" x2="560" y2="345" stroke="#111" stroke-width="2"/>
<text x="568" y="341" font-size="13" font-weight="bold">→ 输入</text>
<text x="422" y="365" font-size="10.5" text-anchor="end">4OE (13)</text>
<line x1="430" y1="361" x2="560" y2="361" stroke="#111" stroke-width="2"/>
<text x="568" y="357" font-size="13" font-weight="bold">→ 使能</text>
<circle cx="400" cy="203" r="4.5" fill="none" stroke="#111" stroke-width="2"/>
<line x1="640" y1="78" x2="640" y2="195" stroke="#111" stroke-width="2"/>
<line x1="631" y1="195" x2="649" y2="195" stroke="#111" stroke-width="2.5"/>
<line x1="631" y1="205" x2="649" y2="205" stroke="#111" stroke-width="2.5"/>
<line x1="640" y1="205" x2="640" y2="400" stroke="#111" stroke-width="2"/>
<text x="600" y="118" text-anchor="end" font-size="13">C 100nF</text>
</svg>