<svg xmlns="http://www.w3.org/2000/svg" viewBox="0 0 720 440" font-family="Helvetica,Arial,sans-serif"><rect width="720" height="440" fill="#fff"/><text x="360" y="30" text-anchor="middle" font-size="17" font-weight="bold" fill="#111">EMS4422RSB 使用接线图 · QFN5×5-40L</text><text x="360" y="52" text-anchor="middle" font-size="12" fill="#666">模拟开关 · VCC 1.5 V to 5 V · 左=控制/输入，右=输出</text><line x1="60" y1="78" x2="660" y2="78" stroke="#111" stroke-width="2.5"/><text x="48" y="83" text-anchor="end" font-size="14" font-weight="bold" fill="#111">VCC</text><line x1="60" y1="400" x2="660" y2="400" stroke="#111" stroke-width="2.5"/><text x="48" y="405" text-anchor="end" font-size="14" font-weight="bold" fill="#111">GND</text><text x="365" y="118" text-anchor="middle" font-size="14" font-weight="bold" fill="#111">EMS4422RSB · QFN5×5-40L</text><rect x="300" y="130" width="130" height="240" rx="5" fill="#f7f9fb" stroke="#111" stroke-width="2.5"/><text x="308" y="173.0" font-size="7.7" fill="#111">GPU_SEL (4)</text><line x1="300" y1="169.0" x2="170" y2="169.0" stroke="#111" stroke-width="2"/><text x="52" y="165.0" font-size="7.7" font-weight="bold" fill="#111">输入 →</text><text x="308" y="182.5" font-size="7.7" fill="#111">_EN (5)</text><line x1="300" y1="178.5" x2="170" y2="178.5" stroke="#111" stroke-width="2"/><text x="52" y="174.5" font-size="7.7" font-weight="bold" fill="#111">使能 →</text><text x="308" y="192.1" font-size="7.7" fill="#111">SCL_B (11)</text><line x1="300" y1="188.1" x2="170" y2="188.1" stroke="#111" stroke-width="2"/><text x="52" y="184.1" font-size="7.7" font-weight="bold" fill="#111">时钟 →</text><text x="308" y="201.6" font-size="7.7" fill="#111">SCL (12)</text><line x1="300" y1="197.6" x2="170" y2="197.6" stroke="#111" stroke-width="2"/><text x="52" y="193.6" font-size="7.7" font-weight="bold" fill="#111">时钟 →</text><text x="308" y="211.1" font-size="7.7" fill="#111">SCL_A (13)</text><line x1="300" y1="207.1" x2="170" y2="207.1" stroke="#111" stroke-width="2"/><text x="52" y="203.1" font-size="7.7" font-weight="bold" fill="#111">时钟 →</text><text x="308" y="220.6" font-size="7.7" fill="#111">SEL (14)</text><line x1="300" y1="216.6" x2="170" y2="216.6" stroke="#111" stroke-width="2"/><text x="52" y="212.6" font-size="7.7" font-weight="bold" fill="#111">选择控制 →</text><text x="308" y="230.2" font-size="7.7" fill="#111">SDA_A (18)</text><line x1="300" y1="226.2" x2="170" y2="226.2" stroke="#111" stroke-width="2"/><text x="52" y="222.2" font-size="7.7" font-weight="bold" fill="#111">输入 →</text><text x="308" y="239.7" font-size="7.7" fill="#111">HPD_A (20)</text><line x1="300" y1="235.7" x2="170" y2="235.7" stroke="#111" stroke-width="2"/><text x="52" y="231.7" font-size="7.7" font-weight="bold" fill="#111">输入 →</text><text x="308" y="249.2" font-size="7.7" fill="#111">D3-A (32)</text><line x1="300" y1="245.2" x2="170" y2="245.2" stroke="#111" stroke-width="2"/><text x="52" y="241.2" font-size="7.7" font-weight="bold" fill="#111">输入 →</text><text x="308" y="258.8" font-size="7.7" fill="#111">D3+A (33)</text><line x1="300" y1="254.8" x2="170" y2="254.8" stroke="#111" stroke-width="2"/><text x="52" y="250.8" font-size="7.7" font-weight="bold" fill="#111">输入 →</text><text x="308" y="268.3" font-size="7.7" fill="#111">D2-A (34)</text><line x1="300" y1="264.3" x2="170" y2="264.3" stroke="#111" stroke-width="2"/><text x="52" y="260.3" font-size="7.7" font-weight="bold" fill="#111">输入 →</text><text x="308" y="277.8" font-size="7.7" fill="#111">D2+A (35)</text><line x1="300" y1="273.8" x2="170" y2="273.8" stroke="#111" stroke-width="2"/><text x="52" y="269.8" font-size="7.7" font-weight="bold" fill="#111">输入 →</text><text x="308" y="287.4" font-size="7.7" fill="#111">D1-A (36)</text><line x1="300" y1="283.4" x2="170" y2="283.4" stroke="#111" stroke-width="2"/><text x="52" y="279.4" font-size="7.7" font-weight="bold" fill="#111">输入 →</text><text x="308" y="296.9" font-size="7.7" fill="#111">D1+A (37)</text><line x1="300" y1="292.9" x2="170" y2="292.9" stroke="#111" stroke-width="2"/><text x="52" y="288.9" font-size="7.7" font-weight="bold" fill="#111">输入 →</text><text x="308" y="306.4" font-size="7.7" fill="#111">D0-A (38)</text><line x1="300" y1="302.4" x2="170" y2="302.4" stroke="#111" stroke-width="2"/><text x="52" y="298.4" font-size="7.7" font-weight="bold" fill="#111">输入 →</text><text x="308" y="315.9" font-size="7.7" fill="#111">D0+A (39)</text><line x1="300" y1="311.9" x2="170" y2="311.9" stroke="#111" stroke-width="2"/><text x="52" y="307.9" font-size="7.7" font-weight="bold" fill="#111">输入 →</text><text x="308" y="325.5" font-size="7.7" fill="#111">GND (21)</text><line x1="300" y1="321.5" x2="150" y2="321.5" stroke="#111" stroke-width="2"/><line x1="150" y1="321.5" x2="150" y2="400" stroke="#111" stroke-width="2"/><text x="308" y="335.0" font-size="7.7" fill="#111">GND (31)</text><line x1="300" y1="331.0" x2="150" y2="331.0" stroke="#111" stroke-width="2"/><line x1="150" y1="331.0" x2="150" y2="400" stroke="#111" stroke-width="2"/><text x="422" y="173.0" text-anchor="end" font-size="7.0" fill="#111">VCC (30)</text><line x1="430" y1="169.0" x2="520" y2="169.0" stroke="#111" stroke-width="2"/><line x1="520" y1="169.0" x2="520" y2="78" stroke="#111" stroke-width="2"/><text x="422" y="180.7" text-anchor="end" font-size="7.0" fill="#111">VCC (10)</text><line x1="430" y1="176.7" x2="520" y2="176.7" stroke="#111" stroke-width="2"/><line x1="520" y1="176.7" x2="520" y2="78" stroke="#111" stroke-width="2"/><text x="422" y="188.4" text-anchor="end" font-size="7.0" fill="#111">D0+ (40)</text><line x1="430" y1="184.4" x2="560" y2="184.4" stroke="#111" stroke-width="2"/><text x="568" y="180.4" font-size="7.0" font-weight="bold" fill="#111">→ 输出</text><text x="422" y="196.1" text-anchor="end" font-size="7.0" fill="#111">D0- (1)</text><line x1="430" y1="192.1" x2="560" y2="192.1" stroke="#111" stroke-width="2"/><text x="568" y="188.1" font-size="7.0" font-weight="bold" fill="#111">→ 输出</text><text x="422" y="203.9" text-anchor="end" font-size="7.0" fill="#111">D1+ (2)</text><line x1="430" y1="199.9" x2="560" y2="199.9" stroke="#111" stroke-width="2"/><text x="568" y="195.9" font-size="7.0" font-weight="bold" fill="#111">→ 输出</text><text x="422" y="211.6" text-anchor="end" font-size="7.0" fill="#111">D1- (3)</text><line x1="430" y1="207.6" x2="560" y2="207.6" stroke="#111" stroke-width="2"/><text x="568" y="203.6" font-size="7.0" font-weight="bold" fill="#111">→ 输出</text><text x="422" y="219.3" text-anchor="end" font-size="7.0" fill="#111">D2+ (6)</text><line x1="430" y1="215.3" x2="560" y2="215.3" stroke="#111" stroke-width="2"/><text x="568" y="211.3" font-size="7.0" font-weight="bold" fill="#111">→ 输出</text><text x="422" y="227.0" text-anchor="end" font-size="7.0" fill="#111">D2- (7)</text><line x1="430" y1="223.0" x2="560" y2="223.0" stroke="#111" stroke-width="2"/><text x="568" y="219.0" font-size="7.0" font-weight="bold" fill="#111">→ 输出</text><text x="422" y="234.7" text-anchor="end" font-size="7.0" fill="#111">D3+ (8)</text><line x1="430" y1="230.7" x2="560" y2="230.7" stroke="#111" stroke-width="2"/><text x="568" y="226.7" font-size="7.0" font-weight="bold" fill="#111">→ 输出</text><text x="422" y="242.4" text-anchor="end" font-size="7.0" fill="#111">D3- (9)</text><line x1="430" y1="238.4" x2="560" y2="238.4" stroke="#111" stroke-width="2"/><text x="568" y="234.4" font-size="7.0" font-weight="bold" fill="#111">→ 输出</text><text x="422" y="250.1" text-anchor="end" font-size="7.0" fill="#111">SDA_B (15)</text><line x1="430" y1="246.1" x2="560" y2="246.1" stroke="#111" stroke-width="2"/><text x="568" y="242.1" font-size="7.0" font-weight="bold" fill="#111">→ 输出</text><text x="422" y="257.9" text-anchor="end" font-size="7.0" fill="#111">SDA (16)</text><line x1="430" y1="253.9" x2="560" y2="253.9" stroke="#111" stroke-width="2"/><text x="568" y="249.9" font-size="7.0" font-weight="bold" fill="#111">→ 输出</text><text x="422" y="265.6" text-anchor="end" font-size="7.0" fill="#111">HPD_B (17)</text><line x1="430" y1="261.6" x2="560" y2="261.6" stroke="#111" stroke-width="2"/><text x="568" y="257.6" font-size="7.0" font-weight="bold" fill="#111">→ 输出</text><text x="422" y="273.3" text-anchor="end" font-size="7.0" fill="#111">HPD (19)</text><line x1="430" y1="269.3" x2="560" y2="269.3" stroke="#111" stroke-width="2"/><text x="568" y="265.3" font-size="7.0" font-weight="bold" fill="#111">→ 输出</text><text x="422" y="281.0" text-anchor="end" font-size="7.0" fill="#111">D3-B (22)</text><line x1="430" y1="277.0" x2="560" y2="277.0" stroke="#111" stroke-width="2"/><text x="568" y="273.0" font-size="7.0" font-weight="bold" fill="#111">→ 输出</text><text x="422" y="288.7" text-anchor="end" font-size="7.0" fill="#111">D3+B (23)</text><line x1="430" y1="284.7" x2="560" y2="284.7" stroke="#111" stroke-width="2"/><text x="568" y="280.7" font-size="7.0" font-weight="bold" fill="#111">→ 输出</text><text x="422" y="296.4" text-anchor="end" font-size="7.0" fill="#111">D2-B (24)</text><line x1="430" y1="292.4" x2="560" y2="292.4" stroke="#111" stroke-width="2"/><text x="568" y="288.4" font-size="7.0" font-weight="bold" fill="#111">→ 输出</text><text x="422" y="304.1" text-anchor="end" font-size="7.0" fill="#111">D2+B (25)</text><line x1="430" y1="300.1" x2="560" y2="300.1" stroke="#111" stroke-width="2"/><text x="568" y="296.1" font-size="7.0" font-weight="bold" fill="#111">→ 输出</text><text x="422" y="311.9" text-anchor="end" font-size="7.0" fill="#111">D1-B (26)</text><line x1="430" y1="307.9" x2="560" y2="307.9" stroke="#111" stroke-width="2"/><text x="568" y="303.9" font-size="7.0" font-weight="bold" fill="#111">→ 输出</text><text x="422" y="319.6" text-anchor="end" font-size="7.0" fill="#111">D1+B (27)</text><line x1="430" y1="315.6" x2="560" y2="315.6" stroke="#111" stroke-width="2"/><text x="568" y="311.6" font-size="7.0" font-weight="bold" fill="#111">→ 输出</text><text x="422" y="327.3" text-anchor="end" font-size="7.0" fill="#111">D0-B (28)</text><line x1="430" y1="323.3" x2="560" y2="323.3" stroke="#111" stroke-width="2"/><text x="568" y="319.3" font-size="7.0" font-weight="bold" fill="#111">→ 输出</text><text x="422" y="335.0" text-anchor="end" font-size="7.0" fill="#111">D0+B (29)</text><line x1="430" y1="331.0" x2="560" y2="331.0" stroke="#111" stroke-width="2"/><text x="568" y="327.0" font-size="7.0" font-weight="bold" fill="#111">→ 输出</text><circle cx="419" cy="141" r="4.5" fill="none" stroke="#111" stroke-width="2"/><text x="656" y="205" font-size="13" fill="#111">C 100nF</text><line x1="640" y1="78" x2="640" y2="195" stroke="#111" stroke-width="2"/><line x1="631" y1="195" x2="649" y2="195" stroke="#111" stroke-width="2.5"/><line x1="631" y1="205" x2="649" y2="205" stroke="#111" stroke-width="2.5"/><line x1="640" y1="205" x2="640" y2="400" stroke="#111" stroke-width="2"/></svg>